<svg width="69" height="16" viewBox="0 0 69 16" fill="none" xmlns="http://www.w3.org/2000/svg">
<path d="M65.7113 13.1278C65.038 13.1278 64.4585 12.9915 63.9727 12.7188C63.4897 12.4432 63.1176 12.054 62.8562 11.5511C62.5949 11.0455 62.4642 10.4474 62.4642 9.75711C62.4642 9.08381 62.5949 8.4929 62.8562 7.98438C63.1176 7.47586 63.4855 7.07955 63.9599 6.79546C64.4372 6.51137 64.9968 6.36932 65.6389 6.36932C66.0707 6.36932 66.4727 6.43893 66.8449 6.57813C67.2199 6.71449 67.5466 6.92046 67.825 7.19603C68.1062 7.4716 68.325 7.81819 68.4812 8.2358C68.6375 8.65057 68.7156 9.13637 68.7156 9.69319V10.1918H63.1886V9.06677H67.0068C67.0068 8.8054 66.95 8.57387 66.8363 8.37216C66.7227 8.17046 66.565 8.01279 66.3633 7.89915C66.1645 7.78268 65.9329 7.72444 65.6687 7.72444C65.3931 7.72444 65.1488 7.78836 64.9358 7.9162C64.7255 8.0412 64.5608 8.21023 64.4414 8.4233C64.3221 8.63353 64.2611 8.8679 64.2582 9.12643V10.196C64.2582 10.5199 64.3179 10.7997 64.4372 11.0355C64.5593 11.2713 64.7312 11.4531 64.9528 11.581C65.1744 11.7088 65.4372 11.7727 65.7412 11.7727C65.9429 11.7727 66.1275 11.7443 66.2951 11.6875C66.4627 11.6307 66.6062 11.5455 66.7255 11.4318C66.8449 11.3182 66.9358 11.179 66.9983 11.0142L68.6772 11.125C68.592 11.5284 68.4173 11.8807 68.1531 12.1818C67.8917 12.4801 67.5537 12.7131 67.1389 12.8807C66.727 13.0455 66.2511 13.1278 65.7113 13.1278Z" fill="white"/>
<path d="M57.0788 9.21591V13H55.2635V6.45455H56.9936V7.60938H57.0703C57.2152 7.2287 57.4581 6.92756 57.799 6.70597C58.1399 6.48154 58.5533 6.36932 59.0391 6.36932C59.4936 6.36932 59.8899 6.46876 60.228 6.66762C60.566 6.86648 60.8288 7.15057 61.0163 7.51989C61.2038 7.88637 61.2976 8.32387 61.2976 8.83239V13H59.4822V9.15626C59.4851 8.75569 59.3828 8.44319 59.1754 8.21876C58.968 7.99148 58.6825 7.87785 58.3189 7.87785C58.0746 7.87785 57.8587 7.9304 57.6712 8.03552C57.4865 8.14063 57.3416 8.29404 57.2365 8.49574C57.1342 8.69461 57.0817 8.93466 57.0788 9.21591Z" fill="#FC360D"/>
<path d="M50.8615 13.1278C50.1996 13.1278 49.6272 12.9872 49.1442 12.706C48.6641 12.4219 48.2934 12.027 48.032 11.5213C47.7706 11.0128 47.64 10.4233 47.64 9.75285C47.64 9.07671 47.7706 8.4858 48.032 7.98012C48.2934 7.4716 48.6641 7.07671 49.1442 6.79546C49.6272 6.51137 50.1996 6.36932 50.8615 6.36932C51.5235 6.36932 52.0945 6.51137 52.5746 6.79546C53.0576 7.07671 53.4297 7.4716 53.6911 7.98012C53.9525 8.4858 54.0831 9.07671 54.0831 9.75285C54.0831 10.4233 53.9525 11.0128 53.6911 11.5213C53.4297 12.027 53.0576 12.4219 52.5746 12.706C52.0945 12.9872 51.5235 13.1278 50.8615 13.1278ZM50.8701 11.7216C51.1712 11.7216 51.4226 11.6364 51.6243 11.4659C51.826 11.2926 51.978 11.0568 52.0803 10.7585C52.1854 10.4602 52.238 10.1207 52.238 9.74006C52.238 9.35938 52.1854 9.01989 52.0803 8.7216C51.978 8.4233 51.826 8.18751 51.6243 8.01421C51.4226 7.84091 51.1712 7.75427 50.8701 7.75427C50.5661 7.75427 50.3104 7.84091 50.103 8.01421C49.8985 8.18751 49.7436 8.4233 49.6385 8.7216C49.5363 9.01989 49.4851 9.35938 49.4851 9.74006C49.4851 10.1207 49.5363 10.4602 49.6385 10.7585C49.7436 11.0568 49.8985 11.2926 50.103 11.4659C50.3104 11.6364 50.5661 11.7216 50.8701 11.7216Z" fill="white"/>
<path d="M39.8406 13V11.9048L44.1957 5.79404H39.832V4.27274H46.5139V5.36791L42.1545 11.4787H46.5224V13H39.8406Z" fill="white"/>
<path d="M31.2124 15.4546C30.9823 15.4546 30.7664 15.4361 30.5647 15.3992C30.3658 15.3651 30.201 15.321 30.0704 15.2671L30.4794 13.9119C30.6925 13.9773 30.8843 14.0128 31.0547 14.0185C31.228 14.0242 31.3772 13.9844 31.5022 13.8992C31.63 13.8139 31.7337 13.669 31.8133 13.4645L31.9198 13.1875L29.5718 6.45456H31.4809L32.836 11.2614H32.9042L34.2721 6.45456H36.1939L33.6499 13.7074C33.5277 14.0597 33.3616 14.3665 33.1513 14.6279C32.9439 14.8921 32.6812 15.0952 32.363 15.2372C32.0448 15.3821 31.6613 15.4546 31.2124 15.4546Z" fill="white"/>
<path d="M24.8747 13.1065C24.3775 13.1065 23.9272 12.9787 23.5238 12.723C23.1233 12.4645 22.8051 12.0852 22.5693 11.5852C22.3363 11.0824 22.2198 10.4659 22.2198 9.7358C22.2198 8.9858 22.3406 8.36222 22.5821 7.86507C22.8235 7.36507 23.1446 6.99149 23.5451 6.74433C23.9485 6.49433 24.3903 6.36933 24.8704 6.36933C25.2369 6.36933 25.5423 6.43183 25.7866 6.55683C26.0338 6.67899 26.2326 6.83239 26.3832 7.01705C26.5366 7.19887 26.6531 7.37785 26.7326 7.55399H26.788V4.27274H28.5991V13H26.8093V11.9517H26.7326C26.6474 12.1335 26.5267 12.3139 26.3704 12.4929C26.217 12.669 26.0167 12.8153 25.7696 12.9318C25.5252 13.0483 25.227 13.1065 24.8747 13.1065ZM25.45 11.6619C25.7426 11.6619 25.9897 11.5824 26.1914 11.4233C26.396 11.2614 26.5522 11.0355 26.6602 10.7457C26.771 10.456 26.8264 10.1165 26.8264 9.72728C26.8264 9.33808 26.7724 9.00001 26.6644 8.71308C26.5565 8.42614 26.4002 8.20455 26.1957 8.0483C25.9912 7.89205 25.7426 7.81393 25.45 7.81393C25.1517 7.81393 24.9002 7.89489 24.6957 8.05683C24.4912 8.21876 24.3363 8.44319 24.2312 8.73012C24.1261 9.01705 24.0735 9.34944 24.0735 9.72728C24.0735 10.108 24.1261 10.4446 24.2312 10.7372C24.3392 11.027 24.494 11.2543 24.6957 11.419C24.9002 11.581 25.1517 11.6619 25.45 11.6619Z" fill="white"/>
<path d="M18.0608 13.1278C17.3988 13.1278 16.8264 12.9872 16.3434 12.706C15.8633 12.4219 15.4926 12.027 15.2312 11.5213C14.9699 11.0128 14.8392 10.4233 14.8392 9.75285C14.8392 9.07671 14.9699 8.4858 15.2312 7.98012C15.4926 7.4716 15.8633 7.07671 16.3434 6.79546C16.8264 6.51137 17.3988 6.36932 18.0608 6.36932C18.7227 6.36932 19.2937 6.51137 19.7738 6.79546C20.2568 7.07671 20.6289 7.4716 20.8903 7.98012C21.1517 8.4858 21.2824 9.07671 21.2824 9.75285C21.2824 10.4233 21.1517 11.0128 20.8903 11.5213C20.6289 12.027 20.2568 12.4219 19.7738 12.706C19.2937 12.9872 18.7227 13.1278 18.0608 13.1278ZM18.0693 11.7216C18.3704 11.7216 18.6218 11.6364 18.8235 11.4659C19.0253 11.2926 19.1772 11.0568 19.2795 10.7585C19.3846 10.4602 19.4372 10.1207 19.4372 9.74006C19.4372 9.35938 19.3846 9.01989 19.2795 8.7216C19.1772 8.4233 19.0253 8.18751 18.8235 8.01421C18.6218 7.84091 18.3704 7.75427 18.0693 7.75427C17.7653 7.75427 17.5096 7.84091 17.3022 8.01421C17.0977 8.18751 16.9429 8.4233 16.8378 8.7216C16.7355 9.01989 16.6843 9.35938 16.6843 9.74006C16.6843 10.1207 16.7355 10.4602 16.8378 10.7585C16.9429 11.0568 17.0977 11.2926 17.3022 11.4659C17.5096 11.6364 17.7653 11.7216 18.0693 11.7216Z" fill="#FC360D"/>
<path d="M10.7014 13.1278C10.0395 13.1278 9.46701 12.9872 8.98406 12.706C8.50395 12.4219 8.13321 12.027 7.87184 11.5213C7.61048 11.0128 7.4798 10.4233 7.4798 9.75285C7.4798 9.07671 7.61048 8.4858 7.87184 7.98012C8.13321 7.4716 8.50395 7.07671 8.98406 6.79546C9.46701 6.51137 10.0395 6.36932 10.7014 6.36932C11.3633 6.36932 11.9343 6.51137 12.4145 6.79546C12.8974 7.07671 13.2696 7.4716 13.5309 7.98012C13.7923 8.4858 13.923 9.07671 13.923 9.75285C13.923 10.4233 13.7923 11.0128 13.5309 11.5213C13.2696 12.027 12.8974 12.4219 12.4145 12.706C11.9343 12.9872 11.3633 13.1278 10.7014 13.1278ZM10.7099 11.7216C11.011 11.7216 11.2625 11.6364 11.4642 11.4659C11.6659 11.2926 11.8179 11.0568 11.9201 10.7585C12.0253 10.4602 12.0778 10.1207 12.0778 9.74006C12.0778 9.35938 12.0253 9.01989 11.9201 8.7216C11.8179 8.4233 11.6659 8.18751 11.4642 8.01421C11.2625 7.84091 11.011 7.75427 10.7099 7.75427C10.4059 7.75427 10.1503 7.84091 9.94287 8.01421C9.73832 8.18751 9.58349 8.4233 9.47838 8.7216C9.3761 9.01989 9.32497 9.35938 9.32497 9.74006C9.32497 10.1207 9.3761 10.4602 9.47838 10.7585C9.58349 11.0568 9.73832 11.2926 9.94287 11.4659C10.1503 11.6364 10.4059 11.7216 10.7099 11.7216Z" fill="#FC360D"/>
<path d="M0.758545 13V4.27274H6.53695V5.79404H2.60372V7.87359H6.15343V9.39489H2.60372V13H0.758545Z" fill="white"/>
<path fill-rule="evenodd" clip-rule="evenodd" d="M8.40476 2.22877C8.85196 1.97483 9.46408 1.7586 10.2763 1.5881C11.1272 1.40949 11.8504 1.4431 12.4557 1.64896C13.0639 1.85579 13.5203 2.22547 13.8511 2.66397C14.4989 3.52274 14.6652 4.64026 14.6364 5.39483L14.585 6.74548L13.7451 5.68651C13.4494 5.31374 11.8781 4.31725 8.44595 5.03771L8.20128 5.08907L8.01339 4.92415C7.64574 4.60145 7.16766 3.93043 7.49077 3.15993C7.64482 2.79255 7.95737 2.48282 8.40476 2.22877ZM8.51526 4.00409C10.8652 3.55765 12.5221 3.85385 13.5327 4.33325C13.4421 3.95619 13.2885 3.57867 13.0528 3.26619C12.829 2.96959 12.5319 2.7311 12.1338 2.59571C11.7327 2.45934 11.1967 2.41669 10.4817 2.56677C9.7281 2.72498 9.22453 2.91325 8.89855 3.09835C8.57277 3.28334 8.45468 3.44717 8.41296 3.54665C8.36143 3.66954 8.38834 3.8336 8.51526 4.00409Z" fill="white"/>
<path fill-rule="evenodd" clip-rule="evenodd" d="M21.5743 2.33128C21.1376 2.05981 20.5345 1.81947 19.7297 1.61689C18.8865 1.40467 18.1626 1.40958 17.5496 1.59126C16.9336 1.77381 16.4629 2.1251 16.115 2.55013C15.4337 3.38254 15.2232 4.49258 15.222 5.2477L15.2198 6.59932L16.1011 5.5745C16.4113 5.21375 18.0209 4.28037 21.4218 5.13638L21.6642 5.19741L21.8585 5.04007C22.2386 4.7322 22.743 4.08067 22.4507 3.29796C22.3113 2.92477 22.0113 2.60288 21.5743 2.33128ZM21.3935 4.10083C19.0632 3.56154 17.3958 3.79179 16.3669 4.23073C16.4725 3.85756 16.6409 3.48643 16.8888 3.18354C17.1242 2.89605 17.4305 2.66953 17.8337 2.55004C18.2398 2.42968 18.7771 2.40832 19.4856 2.58665C20.2324 2.77462 20.7281 2.98271 21.0464 3.1806C21.3646 3.37836 21.4761 3.54675 21.5139 3.6478C21.5605 3.77264 21.5271 3.9355 21.3935 4.10083Z" fill="white"/>
<path fill-rule="evenodd" clip-rule="evenodd" d="M48.5 4C48.2239 4 48 4.22386 48 4.5C48 4.77614 48.2239 5 48.5 5C48.7761 5 49 4.77614 49 4.5C49 4.22386 48.7761 4 48.5 4ZM50 4.5C50 5.32843 49.3284 6 48.5 6C47.6716 6 47 5.32843 47 4.5C47 3.67157 47.6716 3 48.5 3C49.3284 3 50 3.67157 50 4.5Z" fill="white"/>
<path fill-rule="evenodd" clip-rule="evenodd" d="M53.5 4C53.2239 4 53 4.22386 53 4.5C53 4.77614 53.2239 5 53.5 5C53.7761 5 54 4.77614 54 4.5C54 4.22386 53.7761 4 53.5 4ZM55 4.5C55 5.32843 54.3284 6 53.5 6C52.6716 6 52 5.32843 52 4.5C52 3.67157 52.6716 3 53.5 3C54.3284 3 55 3.67157 55 4.5Z" fill="white"/>
</svg>
